<svg width="632" height="632" viewBox="0 0 632 632" fill="none" xmlns="http://www.w3.org/2000/svg">
<circle cx="316" cy="316" r="316" fill="white"/>
<path fill-rule="evenodd" clip-rule="evenodd" d="M317.041 108.26C373.822 108.26 432.551 152.272 453.365 180.357C470.864 203.97 480.286 310.745 480.286 382.905C480.286 397.997 488.614 426.446 486.184 440.882C477.278 493.781 438.475 538.146 361.677 538.146C284.878 538.146 229.815 507.704 172.732 425.973C145.036 425.973 131.613 404.733 131.418 371.214C131.223 337.695 158.152 325.5 158.152 325.5C158.152 325.5 148.551 193.221 172.732 158.782C196.914 124.343 260.26 108.26 317.041 108.26Z" fill="white"/>
<path fill-rule="evenodd" clip-rule="evenodd" d="M293.146 89.5559C328.996 85.9259 364.126 88.9759 399.456 95.2869C402.156 95.7759 403.686 97.5469 404.255 99.6759C420.896 100.436 437.556 101.657 454.175 102.567C460.206 102.897 463.625 108.856 460.875 114.237C460.326 115.306 459.755 116.346 459.175 117.386L459.904 117.146C464.903 115.542 470.304 114.751 475.175 117.297C481.375 120.537 483.806 127.686 482.436 134.266C482.085 135.946 481.496 137.556 480.826 139.127C482.186 139.037 483.556 139.067 484.916 139.247C492.156 140.207 497.536 145.757 497.916 153.147C498.476 164.306 491.286 175.627 482.816 183.616C484.045 186.147 484.516 189.127 484.005 192.147C482.985 198.117 478.587 201.692 473.489 204.024C475.615 210.775 476.62 217.833 476.027 225.046C475.829 227.454 473.723 229.443 471.5 229.931C479.786 252.745 483.98 277.239 486.996 301.106C489.146 318.087 490.206 335.167 490.335 352.276C490.398 360 490.271 367.733 489.947 375.459L489.816 378.356C489.416 386.707 489.396 395.476 487.896 403.737C493.016 412.446 495.076 423.257 495.946 433.016C497.026 445.096 495.316 457.556 491.505 469.047C477.125 512.466 433.726 539.866 390.135 546.987C349.786 553.577 303.096 544.707 279.516 508.056C279.146 507.476 279.936 506.997 280.396 507.377C297.266 521.096 316.835 527.216 338.096 530.196C374.856 535.337 416.175 526.616 445.675 503.497C459.835 492.397 470.045 476.237 474.536 458.846C476.826 449.957 477.616 440.686 476.715 431.537C475.795 422.257 471.686 414.337 469.096 405.567C468.226 402.606 469.146 399.856 470.956 397.897C471.465 390.776 472.666 383.596 473.125 376.497C473.635 368.426 473.946 360.356 474.056 352.276C474.266 335.516 473.566 318.726 472.156 302.037C469.576 271.476 462.726 241.657 458.706 211.356C457.218 212.691 455.084 213.239 452.848 212.073L452.616 211.946L451.396 211.247C451.326 211.247 451.246 211.257 451.175 211.266C442.826 212.077 434.166 210.917 426.166 208.426C417.795 205.827 410.026 201.827 403.085 196.497C401.766 203.186 401.215 209.946 401.206 216.766C401.196 221.026 396.686 223.237 393.106 221.417C377.236 213.356 362.076 204.067 347.686 193.627C346.005 202.237 344.326 210.846 342.635 219.466C341.986 222.787 337.755 224.127 335.045 222.547C324.266 216.276 314.956 208.067 307.376 198.306C305.863 201.2 304.345 204.093 302.817 206.981L300.516 211.306C298.246 215.556 295.206 220.257 290.236 221.616C284.976 223.056 280.585 219.647 278.816 214.886C278.276 213.407 277.776 211.886 277.316 210.356C272.835 220.587 267.776 230.587 262.056 240.127C253.476 254.436 243.175 267.186 232.906 280.266C229.786 284.237 224.446 280.446 224.016 276.587C223.766 274.317 223.556 272.037 223.375 269.766C217.391 281.842 211.147 293.805 204.344 305.421L205.318 309.238C208.125 320.516 210.456 331.874 212.99 343.212C213.808 346.87 211.864 352.1 207.59 352.723C202.484 353.467 197.653 356.076 192.423 354.281C186.72 352.323 185.593 347.394 182.901 342.722C182.364 341.791 181.739 340.936 181.067 340.124L180.896 340.346C180.476 340.897 179.476 340.297 179.726 339.667L180.019 338.939C177.706 336.484 174.938 334.436 172.393 332.233C166.345 331.214 159.542 332.33 155.375 334.787C145.885 340.386 141.526 351.926 141.436 362.537C141.326 374.957 145.175 388.917 151.675 399.537C154.536 404.207 158.456 408.426 163.635 410.497C168.776 412.556 174.346 411.917 179.576 413.856C183.036 415.147 185.166 418.987 183.076 422.466C182.936 422.707 182.776 422.926 182.625 423.157L184.181 425.221C185.251 426.651 186.366 428.183 187.406 429.776C190.066 432.837 192.866 435.787 195.576 438.797C200.585 444.346 205.446 450.047 210.375 455.676C215.026 460.987 219.946 465.976 225.016 470.886C229.806 475.537 235.786 479.446 240.186 484.407C244.465 489.247 245.626 497.696 238.585 500.497C230.796 503.603 223.9 496.323 218.657 491.469L218.436 491.266C208.824 482.421 200.144 472.313 193.251 461.184C186.423 465.832 176.547 466.276 169.748 461.629C166.17 459.184 163.425 455.075 162.091 450.605C160.833 450.887 159.576 451.052 158.35 451.033C157.719 451.399 157.086 451.755 156.446 452.087C151.375 454.726 145.146 453.547 142.826 447.936C140.714 442.842 142.891 437.057 144.794 432.15L145.186 431.136C146.266 428.337 147.456 425.287 148.936 422.417C144.816 419.317 141.295 415.466 138.316 411.087C128.306 396.337 123.306 374.766 125.516 357.167C126.846 346.547 131.835 335.547 140.005 328.386L139.706 327.606C137.416 321.797 135.335 315.966 133.986 309.827C132.406 302.647 131.635 295.207 130.936 287.897C129.456 272.457 129.856 256.667 131.826 241.287C135.526 212.337 144.906 183.917 161.556 159.827C156.835 154.176 153.096 147.526 155.045 139.877C155.936 136.366 157.965 133.037 161.026 131.026C162.715 129.917 164.726 129.747 166.416 128.827L166.924 128.547C167.667 128.114 167.099 128.16 166.656 126.147C164.906 118.106 166.356 110.337 175.206 107.667C183.536 105.157 191.416 110.487 196.346 116.837C209.246 107.686 226.246 102.897 241.196 98.8269C258.196 94.2159 275.635 91.3369 293.146 89.5559ZM153.807 359.256C153.746 352.706 159.956 348.666 166.067 349.737C170.17 350.451 173.593 352.9 176.807 355.431L178.375 356.671C182.289 359.744 186.782 363.057 189.116 367.407C192.536 373.827 185.307 382.466 178.557 377.966C173.926 374.863 170.958 369.891 167.921 365.273L167.607 364.796C166.227 362.726 165.017 360.526 163.126 358.866L162.717 358.508C162.096 357.979 161.428 357.495 160.626 357.266C159.077 356.821 156.209 357.444 155.527 359.288L155.466 359.476C155.216 360.407 153.817 360.206 153.807 359.256Z" fill="black"/>
<path fill-rule="evenodd" clip-rule="evenodd" d="M349.587 468.927C342.864 466.184 336.866 461.61 332.481 455.766C330.957 453.735 330.561 451.59 330.881 449.628C331.241 447.422 332.546 445.422 334.326 444.081C336.112 442.736 338.345 442.072 340.504 442.41C342.381 442.704 344.248 443.732 345.727 445.862L346.035 446.288C348.642 449.815 352.04 452.709 355.91 454.574C359.641 456.372 363.814 457.211 368.132 456.723C376.356 455.794 382.024 451.347 388.049 445.307C388.796 444.544 389.543 443.758 390.294 442.959C390.768 442.235 391.426 441.769 392.157 441.525C392.968 441.253 393.886 441.269 394.726 441.562C395.537 441.845 396.262 442.381 396.747 443.095C397.209 443.773 397.471 444.611 397.386 445.574C396.835 451.833 393.562 457.42 388.914 461.806C383.752 466.677 376.909 470.047 370.466 471.229C363.368 472.531 356.136 471.598 349.587 468.927ZM373.814 372.367C381.366 376.957 392.872 387.661 384.748 399.04C375.186 409.073 361.418 397.569 354.634 392.366C348.343 388.334 341.275 398.705 347.112 403.413C396.136 439.708 416.031 373.568 377.634 366.971C373.406 366.244 371.836 370.947 373.814 372.367ZM285.963 330.147C286.798 319.79 302.57 317.439 304.139 327.687C305.544 336.867 303.89 345.3 299.755 353.565C295.804 361.461 285.874 357.777 285.123 350.587C284.116 340.949 285.444 336.589 285.963 330.147ZM406.027 325.562C408.226 322.682 411.401 320.716 415.205 321.827C427.09 325.3 423.587 342.173 419.413 350.386C417.145 354.846 409.814 355.977 406.501 352.05C401.101 345.646 398.515 332.857 405.38 326.549C405.566 326.223 405.773 325.894 406.027 325.562ZM299.588 284.831L301.465 284.502C307.273 283.498 314.494 282.533 318.603 287.202C320.782 289.678 321.532 294.28 318.603 296.65C313.451 300.82 307.755 299.204 301.581 299.557C296.493 299.849 291.603 300.691 286.702 302.092C275.95 305.165 267.189 310.775 258.006 316.935C256.801 317.743 255.571 316.202 256.146 315.075C261.447 304.692 271.72 296.163 282.01 290.964C287.502 288.189 293.512 285.887 299.588 284.831ZM395.193 280.18L396.63 280.474C412.267 283.742 432.583 290.272 439.988 305.631C440.271 307.803 439.972 308.268 439.73 308.573L439.649 308.674C439.45 308.933 439.29 309.291 438.349 309.587C438.087 309.525 437.824 309.459 437.557 309.389C434.163 308.499 431.477 307.274 428.877 306.002L426.058 304.614C422.788 303.01 419.488 301.465 415.992 300.324C408.53 297.89 400.854 296.176 393.06 295.26C391.37 295.062 389.744 294.492 388.46 293.514C387.242 292.587 386.311 291.303 385.887 289.596C385.337 287.387 385.495 285.714 386.68 283.721C387.572 282.225 388.847 281.187 390.311 280.592C391.804 279.984 393.503 279.841 395.193 280.18Z" fill="black"/>
</svg>
